<?xml version="1.0" standalone="no"?>
<!DOCTYPE svg PUBLIC "-//W3C//DTD SVG 20010904//EN"
 "http://www.w3.org/TR/2001/REC-SVG-20010904/DTD/svg10.dtd">
<svg version="1.0" xmlns="http://www.w3.org/2000/svg"
 width="1698.000000pt" height="1698.000000pt" viewBox="0 0 1698.000000 1698.000000"
 preserveAspectRatio="xMidYMid meet">
<metadata>
Created by potrace 1.14, written by Peter Selinger 2001-2017
</metadata>
<g transform="translate(0.000000,1698.000000) scale(0.100000,-0.100000)"
fill="#000000" stroke="none">
<path d="M8030 16729 c-377 -27 -816 -82 -1101 -139 -1069 -212 -2070 -627
-2969 -1228 -1173 -785 -2136 -1875 -2765 -3132 -450 -899 -719 -1827 -830
-2870 -38 -365 -44 -1079 -10 -1440 39 -419 94 -785 170 -1125 137 -615 345
-1213 620 -1780 103 -214 310 -596 361 -666 l34 -46 -46 -109 c-391 -926 -785
-2145 -784 -2428 1 -256 208 -496 600 -696 356 -181 904 -343 1490 -439 404
-67 924 -115 970 -91 12 6 21 26 25 53 11 72 1 2380 -10 2384 -13 4 -11 2085
1 2104 5 8 10 238 12 511 3 496 3 498 -18 498 -12 0 -20 7 -21 18 0 9 -4 43
-8 75 -6 52 -5 61 15 83 l23 24 298 0 c164 0 979 0 1812 0 1280 0 1513 2 1508
13 -3 8 -60 95 -126 195 -337 504 -730 970 -1458 1728 -135 141 -242 258 -239
261 9 9 238 -147 422 -285 299 -225 540 -437 829 -727 400 -401 661 -716 879
-1060 42 -66 88 -130 102 -142 l25 -23 2210 0 2209 0 10 26 c8 21 15 25 33 20
12 -3 327 -6 699 -6 l676 0 29 -24 c27 -23 28 -27 25 -100 -3 -67 -6 -76 -23
-76 -19 0 -19 -22 -19 -1140 0 -753 3 -1140 10 -1140 6 0 10 -133 10 -380 0
-247 -4 -380 -10 -380 -7 0 -10 -415 -10 -1225 l0 -1225 33 0 c23 0 28 3 17
10 -11 7 -9 11 13 19 37 14 108 15 87 1 -27 -17 20 -12 217 25 838 158 1431
388 1733 671 125 119 186 228 210 380 14 88 6 165 -37 339 -105 432 -265 924
-525 1619 -103 273 -129 353 -120 365 6 9 60 95 121 191 621 986 1012 2048
1175 3191 71 497 71 487 71 1134 0 630 -9 787 -66 1180 -200 1381 -731 2656
-1570 3765 -560 741 -1203 1349 -1974 1866 -1111 745 -2365 1200 -3695 1339
-405 42 -1017 58 -1350 34z m965 -1340 c1978 -138 3788 -1122 4987 -2709 632
-838 1058 -1791 1252 -2801 141 -735 164 -1516 65 -2234 -82 -599 -246 -1186
-492 -1760 -69 -162 -160 -354 -179 -379 -14 -18 -16 -17 -40 15 -25 33 -41
61 -228 404 -193 354 -452 765 -629 998 -42 55 -90 118 -106 141 -60 80 -419
434 -482 474 -48 31 -59 42 -50 51 16 17 -62 90 -253 239 -287 223 -646 462
-968 642 -83 47 -151 88 -152 91 0 5 546 535 784 759 76 73 96 104 96 152 0
128 -267 1046 -488 1678 -483 1379 -976 2428 -1382 2940 -130 163 -322 334
-493 439 -270 165 -647 285 -1057 337 -180 22 -507 29 -670 15 -712 -66 -1204
-265 -1648 -668 -195 -177 -594 -676 -714 -893 -14 -25 -63 -106 -110 -180
-352 -560 -758 -1416 -1100 -2319 -224 -593 -398 -1140 -398 -1254 0 -59 40
-111 210 -273 194 -185 570 -554 570 -559 0 -1 -100 -52 -222 -113 -555 -275
-1069 -612 -1438 -944 -89 -79 -99 -92 -84 -102 14 -11 7 -21 -62 -83 -44 -39
-99 -86 -124 -105 -52 -39 -303 -332 -421 -491 -155 -209 -437 -652 -569 -897
-127 -234 -129 -234 -222 -12 -251 601 -413 1252 -484 1942 -21 212 -30 767
-15 1012 56 919 253 1716 620 2508 458 987 1241 1945 2136 2613 930 695 2107
1162 3270 1296 167 20 406 38 575 45 130 5 558 -4 715 -15z m-260 -4859 c1130
-55 2132 -291 3090 -730 99 -45 186 -89 193 -98 6 -9 12 -27 12 -40 0 -19 -4
-23 -17 -17 -10 3 -126 42 -258 86 -1401 467 -2735 708 -3648 660 -816 -44
-1776 -252 -2882 -624 -235 -80 -285 -94 -285 -80 0 26 69 79 178 137 819 431
1700 659 2722 705 263 12 659 12 895 1z"/>
</g>
</svg>
